<svg width="340" height="96" viewBox="0 0 340 96" fill="none" xmlns="http://www.w3.org/2000/svg">
<g clip-path="url(#clip0_6_204)">
<path d="M336.694 3.31035H3.30554V92.6897H336.694V3.31035Z" fill="#C0C0C0" stroke="black" stroke-width="10"/>
<path d="M333.861 6.14778H331.028V89.8522H333.861V6.14778Z" fill="#868686"/>
<path d="M333.861 86.5419H6.13892V89.8522H333.861V86.5419Z" fill="#868686"/>
<path d="M333.861 6.14778H6.13892V9.45813H333.861V6.14778Z" fill="white"/>
<path d="M331.028 9.45813L333.861 6.14778V9.45813H331.028Z" fill="#868686"/>
<path d="M8.97225 6.14778H6.13892V86.5419H8.97225V6.14778Z" fill="white"/>
<path d="M8.97225 86.5419L6.13892 89.8522V86.5419H8.97225Z" fill="white"/>
<path d="M16.0555 65.2611V36.8867H21.7222V31.2118H27.3889V25.5369H44.3889V31.2118H50.0555V36.8867H55.7222V65.2611H44.3889V53.9113H27.3889V65.2611H16.0555ZM27.3889 48.2364H44.3889V36.8867H38.7222V31.2118H33.0555V36.8867H27.3889V48.2364Z" fill="black"/>
</g>
<defs>
<clipPath id="clip0_6_204">
<rect width="340" height="96" fill="white"/>
</clipPath>
</defs>
</svg>
