<svg width="340" height="96" viewBox="0 0 340 96" fill="none" xmlns="http://www.w3.org/2000/svg">
<g clip-path="url(#clip0_6_224)">
<path d="M336.694 3.31033H3.30554V92.6896H336.694V3.31033Z" fill="#C0C0C0" stroke="black" stroke-width="10"/>
<path d="M333.861 6.1478H331.028V89.8522H333.861V6.1478Z" fill="#868686"/>
<path d="M333.861 86.5419H6.13892V89.8522H333.861V86.5419Z" fill="#868686"/>
<path d="M333.861 6.1478H6.13892V9.45814H333.861V6.1478Z" fill="white"/>
<path d="M331.028 9.45814L333.861 6.1478V9.45814H331.028Z" fill="#868686"/>
<path d="M8.97225 6.1478H6.13892V86.5419H8.97225V6.1478Z" fill="white"/>
<path d="M8.97225 86.5419L6.13892 89.8522V86.5419H8.97225Z" fill="white"/>
<path d="M28.3333 65.2611V59.5862H22.6667V53.9113H17V36.8867H22.6667V31.2118H28.3333V25.537H51V31.2118H56.6667V36.8867H45.3333V31.2118H34V36.8867H28.3333V53.9113H34V59.5862H45.3333V53.9113H56.6667V59.5862H51V65.2611H28.3333Z" fill="black"/>
</g>
<defs>
<clipPath id="clip0_6_224">
<rect width="340" height="96" fill="white"/>
</clipPath>
</defs>
</svg>
