<svg width="132" height="986" viewBox="0 0 132 986" fill="none" xmlns="http://www.w3.org/2000/svg">
<rect width="132" height="986" fill="black"/>
<path d="M41.5 231V189H53.5V207H71.5V189H83.5V231H71.5V213H53.5V231H41.5ZM41.5 306V276H47.5V270H53.5V264H71.5V270H77.5V276H83.5V306H71.5V294H53.5V306H41.5ZM53.5 288H71.5V276H65.5V270H59.5V276H53.5V288ZM41.5 381V339H53.5V345H59.5V351H65.5V357H71.5V339H83.5V381H71.5V369H65.5V363H59.5V357H53.5V381H41.5ZM41.5 456V414H71.5V420H77.5V426H83.5V444H77.5V450H71.5V456H41.5ZM53.5 450H65.5V444H71.5V426H65.5V420H53.5V450ZM41.5 531V489H77.5V495H83.5V507H77.5V513H83.5V525H77.5V531H41.5ZM53.5 507H71.5V495H53.5V507ZM53.5 525H71.5V513H53.5V525ZM47.5 606V600H41.5V570H47.5V564H77.5V570H83.5V600H77.5V606H47.5ZM53.5 600H71.5V570H53.5V600ZM47.5 681V675H41.5V645H47.5V639H77.5V645H83.5V675H77.5V681H47.5ZM53.5 675H71.5V645H53.5V675ZM41.5 756V714H53.5V732H59.5V726H65.5V720H71.5V714H83.5V720H77.5V726H71.5V732H65.5V738H71.5V744H77.5V750H83.5V756H65.5V750H59.5V744H53.5V756H41.5Z" fill="white"/>
<line x1="16" y1="118" x2="115" y2="118" stroke="white" stroke-width="14"/>
<line x1="16" y1="863" x2="115" y2="863" stroke="white" stroke-width="14"/>
<line y1="952" x2="132" y2="952" stroke="white" stroke-width="4"/>
<line y1="34" x2="132" y2="34" stroke="white" stroke-width="4"/>
<line x1="16" y1="80" x2="115" y2="80" stroke="white" stroke-width="14"/>
<line x1="16" y1="898" x2="115" y2="898" stroke="white" stroke-width="14"/>
</svg>
